<svg width="24" height="24" viewBox="0 0 24 24" xmlns="http://www.w3.org/2000/svg">
<path d="M19.1448 11.4017H11.0069V12.6017H19.1448L17.1343 14.7017L17.996 15.6017L20.9639 12.5017C21.0571 12.3719 21.1075 12.214 21.1075 12.0517C21.1075 11.8894 21.0571 11.7315 20.9639 11.6017L17.996 8.50172L17.1343 9.40172L19.1448 11.4017Z" fill="currentColor"/>
<path d="M9.76229 21.4017V15.2017C9.75123 15.0464 9.68716 14.9004 9.58173 14.7903C9.4763 14.6802 9.33653 14.6133 9.18785 14.6017H4.97527C4.9802 14.9184 5.10283 15.2206 5.31722 15.4446C5.53162 15.6685 5.82099 15.7966 6.12415 15.8017H8.51766V20.8017H4.97527C4.7486 20.8166 4.52136 20.7842 4.30676 20.7065C4.09216 20.6289 3.89449 20.5074 3.72523 20.3492C3.55597 20.191 3.41851 19.9993 3.32082 19.7851C3.22313 19.571 3.16718 19.3387 3.1562 19.1017V5.10172C3.14835 4.639 3.31431 4.19148 3.61854 3.85502C3.92277 3.51857 4.34106 3.31995 4.78379 3.30172H8.51766V8.30172H6.21989C5.91673 8.30687 5.62736 8.43495 5.41296 8.65889C5.19857 8.88283 5.07594 9.18507 5.07101 9.50172H9.28359C9.43227 9.49017 9.57204 9.42325 9.67747 9.31313C9.7829 9.20301 9.84697 9.05702 9.85803 8.90172V2.60172C9.81236 2.44558 9.72509 2.30624 9.60642 2.19999C9.48774 2.09374 9.34256 2.02497 9.18785 2.00172H4.97527C4.59803 1.98837 4.22198 2.05281 3.8686 2.19136C3.51522 2.32991 3.19146 2.53985 2.91582 2.80919C2.64017 3.07852 2.41806 3.40196 2.26217 3.76101C2.10629 4.12006 2.01968 4.50769 2.00732 4.90172V18.8017C1.97957 19.1994 2.0309 19.5987 2.15808 19.9746C2.28526 20.3506 2.48554 20.6949 2.74631 20.9861C3.00709 21.2773 3.32272 21.5089 3.67336 21.6665C4.02401 21.8241 4.40208 21.9042 4.78379 21.9017H9.18785C9.2582 21.9167 9.33089 21.915 9.40053 21.8967C9.47017 21.8784 9.53497 21.844 9.59014 21.796C9.64531 21.7479 9.68942 21.6876 9.71922 21.6193C9.74902 21.5511 9.76374 21.4767 9.76229 21.4017Z" fill="currentColor"/>
</svg>
