<svg width="101" height="19" viewBox="0 0 101 19" fill="none" xmlns="http://www.w3.org/2000/svg">
  <path d="M2.26449 16.5385C1.36955 15.2762 0.925296 13.7627 1.00001 12.2308V5.84615C0.891635 4.29774 1.30807 2.75746 2.18546 1.46154C3.05478 0.461538 4.39829 0 6.37403 0C8.34978 0 9.61425 0.461538 10.4045 1.30769C11.2626 2.37941 11.6846 3.72136 11.59 5.07692V6.61539H7.71754V4.84615C7.74881 4.32289 7.66808 3.799 7.48045 3.30769C7.38016 3.10938 7.2212 2.9448 7.02403 2.83513C6.82686 2.72547 6.60049 2.67572 6.37403 2.69231C5.82082 2.69231 5.42568 2.84615 5.26762 3.23077C5.08883 3.77733 5.00862 4.34988 5.03053 4.92308V13.1538C4.98879 13.71 5.0978 14.267 5.34665 14.7692C5.5047 15.1538 5.89985 15.3077 6.45306 15.3077C7.00627 15.3077 7.32239 15.1538 7.48045 14.7692C7.66013 14.2494 7.74049 13.7019 7.71754 13.1538V11.3077H11.59V12.8462C11.6704 14.2238 11.2508 15.5852 10.4045 16.6923C9.61425 17.6154 8.27075 18.0769 6.37403 18.0769C4.47732 18 3.05478 17.5385 2.26449 16.5385Z" fill="#111111"/>
  <path d="M16.2527 0.23077H20.7574L24.0767 17.7692H20.4413L19.8091 14.0769H17.2011L16.5689 17.7692H12.8545L16.2527 0.23077ZM19.493 11.7692L18.5446 4.92308L17.5963 11.7692H19.493Z" fill="#111111"/>
  <path d="M26.8427 3.15385H24.1557V0.23077H33.5602V3.07692H30.8732V17.7692H26.8427V3.15385Z" fill="#111111"/>
  <path d="M47.7066 0.23077V2.07692H43.2019V7.84615H46.8372V9.61539H43.2019V16.0769H47.7066V17.8462H40.6729V0.23077H47.7066Z" fill="#111111"/>
  <path d="M49.7613 0.23077H51.5L56.6369 11.8462V0.23077H58.6917V17.7692H57.1111L51.8951 5.76923V17.7692H49.7613V0.23077Z" fill="#111111"/>
  <path d="M61.0626 0.23077H68.0172V2.07692H63.5125V7.84615H67.1479V9.61539H63.5125V16.0769H68.0172V17.8462H61.0626V0.23077Z" fill="#111111"/>
  <path d="M73.7074 0.23077C75.1375 0.134618 76.5587 0.514353 77.7379 1.30769C78.6072 2 79.0024 3.23077 79.0024 4.84616C79.0024 7.07692 78.2911 8.46154 76.7895 8.92308L79.3185 17.6923H76.8686L74.4977 9.46154H72.5219V17.6923H69.993V0.23077H73.7074ZM73.5493 7.76923C74.364 7.83458 75.1761 7.61652 75.8412 7.15385C76.3154 6.76923 76.5524 6 76.5524 4.84616C76.5744 4.27296 76.4941 3.7004 76.3154 3.15385C76.1375 2.76166 75.832 2.4373 75.446 2.23077C74.9017 1.98934 74.3042 1.8836 73.7074 1.92308H72.601V7.69231H73.5493V7.76923Z" fill="#111111"/>
  <path d="M82.1635 16.4615C81.342 15.1166 80.9564 13.5617 81.0571 12V6.15384C81.0376 5.03911 81.1705 3.92679 81.4522 2.84615C81.7167 2.03863 82.2437 1.33668 82.9538 0.846151C83.8362 0.337747 84.8542 0.0967283 85.8779 0.153843C87.5375 0.153843 88.723 0.538459 89.4342 1.38461C90.2524 2.50191 90.6438 3.86237 90.5407 5.23077V5.84615H88.1698V5.30769C88.1734 4.66346 88.1205 4.0201 88.0117 3.38461C87.9451 2.98303 87.7178 2.62348 87.3795 2.38461C86.9353 2.10082 86.4081 1.96578 85.8779 2C85.3113 1.96466 84.7504 2.12843 84.2973 2.46154C84.1114 2.61401 83.9595 2.80181 83.8508 3.01344C83.742 3.22507 83.6789 3.45608 83.6651 3.69231C83.5609 4.37999 83.5081 5.07411 83.507 5.76923V12.3077C83.4488 13.3038 83.6105 14.3006 83.9812 15.2308C84.2973 15.8462 84.9296 16.0769 85.8779 16.0769C86.2524 16.1223 86.6322 16.0589 86.9697 15.8947C87.3073 15.7304 87.5873 15.4727 87.7746 15.1538C88.1922 14.1811 88.3812 13.1299 88.3278 12.0769V10.8462H86.036V9.07692H90.6197V17.7692H89.0391L88.802 15.7692C88.5948 16.4395 88.1634 17.0231 87.5763 17.4273C86.9892 17.8315 86.2801 18.0331 85.5618 18C84.9088 18.0374 84.2565 17.9164 83.6633 17.6479C83.0702 17.3794 82.5549 16.9717 82.1635 16.4615Z" fill="#111111"/>
  <path d="M95.6776 11.6154L91.8052 0.307692H94.1761L96.9421 8.76923L99.6291 0.307692H102L98.1275 11.6154V17.7692H95.7566V11.6154H95.6776Z" fill="#111111"/>
</svg>
