<svg xmlns="http://www.w3.org/2000/svg" width="84" height="84" fill="none"><path fill="#81B3D2" fill-rule="evenodd" d="M42 8.379 4.44 45.939l2.12 2.122L14 40.62V78h-4v3h65v-3h-5V40.621l7.44 7.44 2.12-2.122L70 36.38V9H56v13.379l-14-14Zm17 17 8 8V12h-8v13.379Zm8 12.242-25-25-25 25V78h50V37.621ZM34 50v24h16V50H34Zm3 21V53h10v18H37ZM21 50h3v4h-3v-4Zm9 0h-3v4h3v-4Zm-9 6h3v4h-3v-4Zm9 0h-3v4h3v-4Zm24-6h3v4h-3v-4Zm9 0h-3v4h3v-4Zm-9 6h3v4h-3v-4Zm9 0h-3v4h3v-4ZM37 36a5 5 0 1 1 10 0 5 5 0 0 1-10 0Zm5-8a8 8 0 1 0 0 16 8 8 0 0 0 0-16Z" clip-rule="evenodd"/></svg>
