<svg xmlns="http://www.w3.org/2000/svg" width="30" height="22" fill="#666"><path d="M.091 5.49c0-.855.552-1.316 1.656-1.384l4.254.026c.285 0 .475.125.57.377.438 1.257.928 2.343 1.47 3.257.543.913 1.252 1.965 2.127 3.156.076.15.2.226.371.226a.356.356 0 0 0 .314-.176l.086-.277.029-4.35c0-.302-.081-.503-.243-.604-.162-.1-.462-.176-.9-.226-.342-.05-.513-.235-.513-.553 0-.068.01-.118.028-.151.4-1.09 1.542-1.635 3.426-1.635l1.599-.025c.723 0 1.322.16 1.798.478.476.318.714.821.714 1.509v5.708a.706.706 0 0 0 .37.126c.286 0 .534-.151.743-.453 2.093-2.582 3.226-4.308 3.397-5.18a.41.41 0 0 1 .057-.126c.133-.251.352-.47.657-.654.304-.184.57-.31.799-.377a.63.63 0 0 1 .257-.05h4.425l.285.025a1 1 0 0 1 .885.478c.076.1.128.21.157.327.029.117.047.234.057.352.01.117.014.184.014.2v.177c-.133.687-.47 1.42-1.013 2.2-.543.78-1.232 1.622-2.07 2.528-.837.905-1.36 1.5-1.57 1.785-.171.201-.257.386-.257.553 0 .135.076.285.229.453l4.168 4.627c.228.268.342.562.342.88 0 .386-.171.705-.514.956-.342.252-.752.394-1.227.428l-.486.025h-4.339a.988.988 0 0 0-.114.012.988.988 0 0 1-.114.013c-.419 0-.809-.16-1.17-.478-.134-.134-1.028-1.123-2.684-2.967a1.459 1.459 0 0 0-.4-.327c-.075.268-.175.653-.3 1.156-.123.503-.213.864-.27 1.082l-.086.427c-.19.587-.59.94-1.199 1.057l-.4.025H12.71c-1.58 0-3.154-.637-4.725-1.912-1.57-1.274-2.983-2.92-4.239-4.941C2.49 11.253 1.32 8.9.235 6.219a1.804 1.804 0 0 1-.144-.73Zm17.157 6.513c-.4 0-.762-.097-1.085-.29-.324-.192-.485-.456-.485-.791V5.138c0-.336-.095-.575-.286-.717-.19-.143-.523-.214-.999-.214l-1.627.05c-.818 0-1.437.126-1.855.378.837.352 1.255.922 1.255 1.71v4.426c-.037.419-.228.767-.57 1.043a1.773 1.773 0 0 1-1.142.415c-.571 0-1.009-.243-1.313-.729-1.485-1.978-2.589-3.856-3.312-5.633l-.257-.654-3.796-.025c-.248 0-.386.012-.414.038-.029.025-.043.096-.043.213 0 .151.019.31.057.478l.6 1.408c1.598 3.638 3.335 6.505 5.21 8.601 1.874 2.096 3.715 3.144 5.523 3.144h2.854c.115 0 .2-.03.257-.088.058-.06.105-.172.143-.34l.057-.252.543-2.213c.152-.301.285-.502.4-.603.209-.184.456-.277.741-.277.457 0 .924.243 1.4.73l2.426 2.716c.152.218.314.327.485.327h4.71c.571 0 .857-.126.857-.378a.444.444 0 0 0-.086-.251l-4.14-4.552c-.323-.352-.485-.73-.485-1.132 0-.402.153-.788.457-1.156.248-.336.728-.893 1.442-1.673a38.176 38.176 0 0 0 1.87-2.188c.532-.679.884-1.295 1.056-1.848l.085-.327a.347.347 0 0 1-.028-.163.538.538 0 0 0-.029-.189h-4.482c-.285.1-.513.251-.685.453l-.17.477c-.477 1.157-1.723 2.943-3.74 5.357a2.11 2.11 0 0 1-1.4.503Z"/></svg>
