<svg xmlns="http://www.w3.org/2000/svg" width="140" height="18" fill="none"><g fill="#fff" opacity=".4"><path d="M72.07 2.4c.12.22.19.47.19.72v12.45c-.01.44-.2.86-.52 1.17-.32.31-.76.5-1.21.5h-5.14V18h5.93c.45 0 .89-.19 1.21-.5.32-.3.5-.73.52-1.17V3.88a1.7 1.7 0 0 0-.97-1.5ZM80.05 2.21v15.01h-2.01V18h2.8V2.2h-.79ZM92.51 2.21v15.01h-2.23l.22.77h2.8V2.2h-.79ZM87.66 10.35v6.88h-2.01V18h2.8v-5.02l-.8-2.63ZM99.89 11.45h2.31v-.78h-3.1c-.26 0-.52-.06-.76-.17.14.28.36.52.63.69.27.17.6.26.92.26ZM100.96 12.45l-.8.18v1.87h.8v-2.05ZM104.84 2.4c.12.22.18.47.19.72v3.2l-2.04.46v.94l2.82-.64v-3.2c0-.31-.09-.61-.26-.88a1.72 1.72 0 0 0-.7-.6ZM34.92 2.4c.12.22.18.47.18.72v12.45c0 .44-.2.86-.52 1.17-.32.31-.75.5-1.2.5h-4.2c-.26 0-.52-.06-.76-.18a1.77 1.77 0 0 0 1.54.94h4.2c.46 0 .9-.19 1.22-.5.32-.3.5-.73.51-1.17V3.88c0-.3-.1-.61-.26-.88a1.71 1.71 0 0 0-.71-.6ZM42.75 7.97h.8V4.92h1.24v-.76h-2.04v3.8ZM47.4 11.26c.29-.13.54-.34.71-.6.18-.27.27-.57.27-.89V3.88a1.7 1.7 0 0 0-.97-1.5c.11.23.17.48.18.73v5.91c0 .32-.1.62-.26.89-.18.26-.42.47-.72.6l1.17 6.72h-2.15l.13.76h2.8l-1.16-6.73ZM43.83 10.66h-1.08v6.57h-2V18h2.8v-6.55h.41l-.13-.8ZM54.89 14.49h.8V4.92h1.23v-.76h-2.03v10.33ZM17.74 7.97h.78V4.92h1.24v-.76h-2.02v3.8ZM23.38 8.52V3.88a1.7 1.7 0 0 0-.97-1.49c.12.23.18.48.18.73v4.64a1.6 1.6 0 0 1-.61 1.29 1.9 1.9 0 0 1 .63 1.35v5.16c0 .45-.2.88-.53 1.19-.33.31-.77.48-1.24.48h-5.12V18h5.93c.46 0 .9-.18 1.21-.5.33-.3.51-.73.52-1.17v-5.16a1.85 1.85 0 0 0-.64-1.35 1.64 1.64 0 0 0 .64-1.29Z"/><path d="M59.75 3.12c0-.25-.07-.5-.18-.73.28.14.53.35.7.62.17.26.26.56.26.87v12.45c-.01.44-.2.86-.52 1.17-.32.31-.75.5-1.21.5h-4.2c-.32 0-.64-.1-.91-.26a1.7 1.7 0 0 1-.64-.68c.24.12.5.18.76.18h4.2c.47 0 .9-.19 1.22-.5.32-.31.5-.73.52-1.17V3.12ZM68.19 14.5h-.8V4.16h2.04v.76h-1.24v9.58ZM105.03 9.64c0-.26-.07-.5-.19-.73.3.13.53.35.7.61.17.26.27.57.27.88v5.93c-.01.44-.2.86-.52 1.17-.32.31-.76.5-1.21.5h-4.2c-.32 0-.64-.1-.91-.26a1.7 1.7 0 0 1-.63-.68c.23.12.5.18.75.18h4.2c.46 0 .9-.19 1.22-.5.32-.31.5-.73.52-1.17V9.64ZM100.17 7.97V4.15h2.03v.77h-1.24v3.05h-.8ZM112.67 10.67h.26l.53 1.64V18h-2.8v-.77h2.01v-6.56ZM117.63 2.21h1.05l-2.62 7.87 2.62 7.92h-2.83l-.02-.1-.22-.67h2.27l-2.61-7.91 2.36-7.1ZM125.25 17.22v-15h.8v15.77h-2.8v-.77h2ZM137.04 11.42l2.17-2.1.79.77-2.16 2.1-.8-.77ZM3.65 11.42l2.16-2.1.8.77-2.16 2.1-.8-.77ZM18.52 14.5h-.78v-3.83h2.02v.78h-1.24v3.05ZM31.03 14.5h-.79V4.16h2.03v.76h-1.24v9.58Z"/></g><path fill="#fff" d="M2.16 5.8 0 7.88l2.16 2.1 2.17-2.1-2.17-2.1ZM135.56 5.8l-2.16 2.09 2.17 2.1 2.16-2.1-2.17-2.1Z"/><path fill="#fff" fill-rule="evenodd" d="M20.93 7.03c.1-.22.16-.46.16-.7V1.67c0-.44-.19-.86-.51-1.18A1.77 1.77 0 0 0 19.36 0h-5.93v15.78h5.93c.46 0 .9-.18 1.22-.5.32-.3.5-.73.51-1.17V8.95a1.85 1.85 0 0 0-.63-1.35c.2-.15.36-.35.47-.57Zm-4.7-4.32h2.04v3.8h-2.04v-3.8Zm0 6.51h2.04v3.83h-2.04V9.22ZM33.09.5a1.77 1.77 0 0 0-1.22-.5h-4.2a1.78 1.78 0 0 0-1.23.49 1.66 1.66 0 0 0-.5 1.18v12.45c0 .44.18.86.5 1.17.33.31.77.5 1.22.5h4.21c.46-.01.9-.2 1.21-.5.33-.31.51-.73.52-1.17V1.67c0-.44-.19-.86-.51-1.18Zm-4.35 2.2h2.03v10.35h-2.03V2.71ZM42.33 9.22l1.14 6.56h2.8L45.1 9.06c.3-.13.54-.33.72-.6.18-.26.27-.57.27-.88V1.67a1.6 1.6 0 0 0-.5-1.18A1.72 1.72 0 0 0 44.4 0h-5.93v15.78h2.8V9.22h1.07Zm-1.08-6.51h2.04v3.8h-2.04v-3.8ZM57.74.5a1.77 1.77 0 0 0-1.22-.5H52.3c-.46 0-.9.18-1.21.5-.32.3-.5.73-.5 1.17v12.45c0 .44.19.86.51 1.17.33.31.76.5 1.22.5h4.2c.45-.01.89-.2 1.21-.5.32-.31.5-.73.52-1.17V1.67c0-.44-.2-.86-.51-1.18Zm-4.35 2.2h2.03v10.35h-2.03V2.71ZM70.25.5a1.77 1.77 0 0 0-1.22-.5H63.1v15.79h5.93c.45-.01.89-.2 1.21-.5.32-.31.5-.73.52-1.17V1.67c0-.44-.2-.86-.51-1.18ZM65.9 2.7h2.03v10.35H65.9V2.71Z" clip-rule="evenodd"/><path fill="#fff" d="M78.55 0h-2.8v15.78h2.8V0ZM91.02 15.78V0H88.2v6.47L86.15 0h-2.78v15.78h2.8v-6.9l2.04 6.9h2.8ZM103.01 7a1.77 1.77 0 0 0-1.21-.48h-3.12V2.7h2.03v2.78l2.82-.63v-3.2c0-.43-.19-.85-.5-1.17A1.78 1.78 0 0 0 101.8 0h-4.2a1.78 1.78 0 0 0-1.22.49 1.66 1.66 0 0 0-.5 1.18v5.89a1.62 1.62 0 0 0 .5 1.18 1.73 1.73 0 0 0 1.23.48h3.1v3.84h-2.03v-2.82l-2.8.63v3.25c0 .44.18.86.5 1.17.33.31.76.49 1.22.5h4.2c.45-.01.89-.2 1.21-.5.32-.31.5-.73.52-1.17V8.19c0-.45-.2-.87-.52-1.18ZM116.39 15.79l-2.62-7.92L116.41 0h-2.85l-2.14 6.52h-.24V0h-2.8v15.78h2.8V9.23h.26l2.1 6.46.02.1h2.83ZM123.77 0h-2.8v15.78h2.8V0Z"/></svg>