<svg xmlns="http://www.w3.org/2000/svg" width="187" height="24" fill="none"><g fill="#DBB590" opacity=".4"><path d="M96.27 3.19c.16.3.24.63.24.97v16.6a2.23 2.23 0 0 1-.68 1.56 2.4 2.4 0 0 1-1.62.66h-6.87V24h7.92a2.4 2.4 0 0 0 1.62-.66c.43-.42.68-.98.69-1.57V5.17a2.28 2.28 0 0 0-1.3-2ZM106.93 2.95v20.02h-2.7v1.02h3.75V2.95h-1.05ZM123.57 2.95v20.02h-2.99l.3 1.02h3.75V2.95h-1.06ZM117.09 13.8v9.18h-2.7V24h3.75V17.3l-1.05-3.5ZM133.42 15.27h3.1v-1.04h-4.15c-.35 0-.7-.08-1.02-.24a2.35 2.35 0 0 0 2.06 1.27ZM134.85 16.6l-1.06.23v2.5h1.06V16.6ZM140.04 3.19c.16.3.24.63.24.97v4.27l-2.71.61v1.25l3.77-.85V5.17c0-.41-.13-.82-.36-1.17a2.28 2.28 0 0 0-.94-.81ZM46.64 3.19c.16.3.24.63.24.97v16.6a2.23 2.23 0 0 1-.68 1.56 2.4 2.4 0 0 1-1.63.66h-5.6c-.35 0-.7-.08-1-.23.18.37.48.69.84.9.36.23.78.35 1.21.35h5.61a2.4 2.4 0 0 0 1.62-.66c.43-.42.68-.98.7-1.57V5.17a2.29 2.29 0 0 0-1.3-2ZM57.1 10.62h1.06V6.56h1.66V5.54h-2.71v5.08ZM63.3 15.01a2.13 2.13 0 0 0 1.31-1.98V5.17c.01-.41-.11-.82-.34-1.18a2.28 2.28 0 0 0-.95-.82c.15.3.24.64.24.98v7.88c0 .42-.12.83-.35 1.18-.23.35-.56.63-.95.8l1.56 8.97h-2.88l.18 1.01h3.74l-1.55-8.98ZM58.54 14.2h-1.43v8.78h-2.69V24h3.74v-8.73h.56l-.18-1.06ZM73.32 19.32h1.05V6.56h1.66V5.54h-2.71v13.78ZM23.69 10.62h1.05V6.56h1.66V5.54h-2.71v5.08ZM31.23 11.36V5.17c0-.41-.13-.82-.36-1.17a2.28 2.28 0 0 0-.94-.81c.16.3.24.63.24.97v6.2a2.12 2.12 0 0 1-.81 1.7 2.54 2.54 0 0 1 .84 1.8v6.89c-.01.6-.26 1.16-.7 1.58-.45.42-1.04.65-1.66.65H21v1.01h7.92a2.4 2.4 0 0 0 1.62-.66c.43-.42.68-.98.69-1.57v-6.88a2.46 2.46 0 0 0-.86-1.8 2.2 2.2 0 0 0 .86-1.72Z"/><path d="M79.8 4.16c0-.34-.08-.67-.24-.97.39.18.71.47.94.82.22.35.35.75.35 1.17v16.6a2.23 2.23 0 0 1-.69 1.56 2.4 2.4 0 0 1-1.62.66h-5.61c-.43 0-.85-.12-1.22-.34a2.26 2.26 0 0 1-.84-.91c.31.15.66.23 1 .23h5.63a2.4 2.4 0 0 0 1.62-.66c.43-.41.67-.97.69-1.56V4.16ZM91.08 19.34h-1.05V5.54h2.7v1.02h-1.65v12.78ZM140.28 12.85c0-.34-.08-.67-.24-.97a2.17 2.17 0 0 1 1.29 1.99v7.9a2.22 2.22 0 0 1-.7 1.57c-.42.41-1 .65-1.61.66h-5.61c-.43 0-.85-.12-1.22-.34a2.26 2.26 0 0 1-.84-.91c.31.15.66.23 1.01.23h5.62a2.4 2.4 0 0 0 1.62-.66c.43-.41.67-.97.68-1.56v-7.9ZM133.8 10.62V5.53l2.7.01v1.02h-1.65v4.06h-1.06ZM150.5 14.23h.34l.7 2.18V24h-3.73v-1.02h2.69v-8.75ZM157.12 2.95h1.4l-3.5 10.5 3.5 10.55h-3.77l-.03-.13-.3-.9h3.04l-3.5-10.54 3.16-9.48ZM167.3 22.97V2.95h1.06V24h-3.74v-1.02h2.68ZM183.05 15.22l2.9-2.79 1.05 1.02-2.89 2.8-1.06-1.03ZM4.87 15.22l2.9-2.78 1.05 1.01-2.87 2.8-1.08-1.03ZM24.74 19.34H23.7v-5.11h2.7v1.04h-1.65v4.07ZM41.45 19.34h-1.06V5.54h2.71v1.02h-1.65v12.78Z"/></g><path fill="#DBB590" d="M2.89 7.72 0 10.52l2.89 2.8 2.9-2.8-2.9-2.8ZM181.07 7.73l-2.9 2.78 2.9 2.8 2.9-2.8-2.9-2.78Z"/><path fill="#DBB590" fill-rule="evenodd" d="M27.95 9.37c.15-.29.22-.61.22-.94v-6.2a2.2 2.2 0 0 0-.68-1.57A2.37 2.37 0 0 0 25.86 0h-7.92v21.04h7.93a2.4 2.4 0 0 0 1.62-.66c.43-.42.67-.98.68-1.56v-6.89a2.46 2.46 0 0 0-.84-1.8c.27-.2.48-.46.62-.76Zm-6.27-5.76h2.72v5.08h-2.71V3.6Zm0 8.69h2.72v5.1h-2.71v-5.1ZM44.2.66A2.37 2.37 0 0 0 42.57 0h-5.62a2.38 2.38 0 0 0-1.63.65 2.22 2.22 0 0 0-.68 1.58v16.6c0 .58.25 1.14.69 1.56.43.42 1.01.65 1.62.66h5.62a2.4 2.4 0 0 0 1.62-.67c.43-.41.68-.97.69-1.56V2.22A2.2 2.2 0 0 0 44.2.67ZM38.4 3.6h2.7v13.8h-2.7V3.6ZM56.55 12.3l1.51 8.74h3.74l-1.56-8.95c.4-.18.73-.46.96-.8.24-.36.37-.77.37-1.19V2.23A2.14 2.14 0 0 0 60.9.66 2.3 2.3 0 0 0 59.29 0h-7.92v21.04h3.74V12.3h1.44ZM55.1 3.6h2.72V8.7H55.1V3.6ZM77.12.66A2.37 2.37 0 0 0 75.49 0h-5.64c-.6 0-1.18.24-1.61.66-.43.42-.67.98-.66 1.57v16.6c0 .58.25 1.14.68 1.56.43.42 1.01.65 1.62.66h5.61a2.4 2.4 0 0 0 1.62-.67c.43-.41.68-.97.7-1.56V2.22a2.2 2.2 0 0 0-.7-1.56Zm-5.8 2.95h2.7v13.8h-2.7V3.6ZM93.83.66A2.37 2.37 0 0 0 92.2 0h-7.92v21.05h7.92a2.4 2.4 0 0 0 1.62-.67c.43-.41.68-.97.69-1.56V2.22a2.2 2.2 0 0 0-.68-1.56Zm-5.8 2.95h2.7v13.8h-2.7V3.6Z" clip-rule="evenodd"/><path fill="#DBB590" d="M104.92 0h-3.74v21.04h3.74V0ZM121.57 21.04V0h-3.75v8.62L115.06 0h-3.7v21.04h3.72v-9.19l2.74 9.2h3.74ZM137.6 9.35a2.37 2.37 0 0 0-1.63-.66h-4.16V3.6h2.7v3.72l3.78-.85V2.23a2.2 2.2 0 0 0-.68-1.57 2.37 2.37 0 0 0-1.63-.66h-5.62a2.38 2.38 0 0 0-1.62.65 2.2 2.2 0 0 0-.68 1.58v7.85a2.16 2.16 0 0 0 .68 1.57 2.31 2.31 0 0 0 1.63.65h4.15v5.11h-2.71v-3.76l-3.75.84v4.33c.01.59.25 1.15.68 1.57.43.41 1.01.65 1.62.66h5.61a2.4 2.4 0 0 0 1.62-.67c.43-.41.68-.97.69-1.56v-7.9a2.2 2.2 0 0 0-.68-1.57ZM155.46 21.05l-3.5-10.56L155.5 0h-3.8l-2.87 8.69h-.31V0h-3.74v21.04h3.74V12.3h.34l2.8 8.62.04.13h3.77ZM165.32 0h-3.74v21.04h3.74V0Z"/></svg>