<svg xmlns="http://www.w3.org/2000/svg" width="16" height="16" fill="none"><path fill="#fff" d="M15.52 2.5c-.25.11-.5.2-.77.28.31-.35.55-.76.7-1.22a.26.26 0 0 0-.38-.3c-.56.34-1.16.57-1.79.71a3.41 3.41 0 0 0-5.77 2.88 8.73 8.73 0 0 1-5.99-3.18.26.26 0 0 0-.42.03 3.4 3.4 0 0 0 .35 3.93 2.89 2.89 0 0 1-.45-.2.26.26 0 0 0-.38.21v.05c0 1.22.66 2.33 1.67 2.93l-.26-.04a.26.26 0 0 0-.3.33 3.4 3.4 0 0 0 2.5 2.29 6.03 6.03 0 0 1-3.94.87.26.26 0 0 0-.17.47A9.2 9.2 0 0 0 5.09 14a8.84 8.84 0 0 0 6.85-3 9.54 9.54 0 0 0 2.37-6.5c.6-.46 1.1-1 1.53-1.62a.26.26 0 0 0-.32-.38Z"/></svg>