<svg xmlns="http://www.w3.org/2000/svg" width="16" height="16" fill="none"><path fill="#fff" d="M15.92 12.03a8.93 8.93 0 0 0-1.65-2.13l-.02-.02v-.01l-.01-.01h-.01a10.1 10.1 0 0 1-.68-.75.76.76 0 0 1-.11-.74c.06-.18.31-.58.75-1.2l.54-.77c.96-1.4 1.38-2.29 1.25-2.68l-.05-.1c-.03-.05-.12-.1-.26-.14a1.19 1.19 0 0 0-.53-.02l-2.4.01a.28.28 0 0 0-.17 0l-.1.04-.05.02-.03.03a.36.36 0 0 0-.1.1.67.67 0 0 0-.08.15 15.6 15.6 0 0 1-1.45 3.04 4.66 4.66 0 0 1-.75.92c-.1.08-.17.12-.22.1l-.14-.03a.59.59 0 0 1-.2-.23c-.04-.1-.07-.2-.09-.35a4.6 4.6 0 0 1-.02-.81v-.38a25.24 25.24 0 0 1 .04-1.4 16.12 16.12 0 0 0-.02-.92 1.6 1.6 0 0 0-.09-.29.47.47 0 0 0-.17-.22.91.91 0 0 0-.28-.12C8.52 3.05 8.15 3 7.7 3a4.98 4.98 0 0 0-2 .22c-.1.07-.22.16-.31.27-.1.14-.11.21-.04.22.33.06.57.19.7.4l.06.1a4.6 4.6 0 0 1 .2 1.09 7.77 7.77 0 0 1-.2 2.3l-.1.2a.14.14 0 0 1-.04.05.57.57 0 0 1-.23.05c-.08 0-.17-.04-.28-.13-.11-.08-.23-.2-.35-.35a4.69 4.69 0 0 1-.4-.62c-.15-.27-.3-.59-.47-.95l-.13-.27a21.87 21.87 0 0 1-.73-1.69.6.6 0 0 0-.2-.29l-.04-.02a.88.88 0 0 0-.32-.14l-2.29.02c-.23 0-.39.05-.47.17l-.04.06a.33.33 0 0 0-.02.14c0 .07.02.15.05.25a31.3 31.3 0 0 0 3 5.78 18.87 18.87 0 0 0 .82 1.1l.2.23a9.87 9.87 0 0 0 1.45 1.13 4.41 4.41 0 0 0 2.31.63h.96c.2-.02.34-.09.44-.2l.04-.05.06-.17a1 1 0 0 0 .03-.25c0-.26.01-.5.05-.7.04-.21.09-.37.14-.48a1.09 1.09 0 0 1 .33-.4.47.47 0 0 1 .06-.03c.14-.05.3 0 .47.14.18.14.35.32.51.53l.57.7c.22.27.42.46.58.59l.17.1c.11.08.26.15.43.2.18.07.34.09.47.05l2.13-.03c.21 0 .38-.04.5-.12.1-.07.18-.16.2-.25.03-.09.03-.2 0-.3l-.05-.25Z"/></svg>