<?xml version="1.0" standalone="no"?>
<!DOCTYPE svg PUBLIC "-//W3C//DTD SVG 20010904//EN"
 "http://www.w3.org/TR/2001/REC-SVG-20010904/DTD/svg10.dtd">
<svg version="1.0" xmlns="http://www.w3.org/2000/svg"
 width="700.000000pt" height="700.000000pt" viewBox="0 0 700.000000 700.000000"
 preserveAspectRatio="xMidYMid meet">
<metadata>
Created by potrace 1.14, written by Peter Selinger 2001-2017
</metadata>
<g transform="translate(0.000000,700.000000) scale(0.100000,-0.100000)"
fill="#000000" stroke="none">
<path d="M1535 4799 c-227 -33 -387 -113 -484 -241 -60 -81 -120 -209 -147
-316 l-25 -97 3 -670 3 -670 34 -99 c19 -54 56 -135 83 -180 87 -144 179 -218
339 -273 126 -44 262 -63 439 -63 256 0 443 43 575 132 80 53 134 121 190 240
59 125 67 172 72 396 l5 202 -301 0 -301 0 0 -147 c0 -351 -56 -453 -247 -453
-37 0 -85 5 -107 11 -57 16 -112 73 -139 144 l-22 60 0 730 0 730 23 58 c13
32 38 71 55 87 91 86 308 73 380 -21 40 -54 49 -102 54 -306 l5 -193 299 0
299 0 0 188 c0 159 -3 199 -21 262 -37 135 -133 291 -219 356 -92 68 -224 113
-390 134 -99 12 -369 11 -455 -1z"/>
<path d="M3175 4798 c-5 -16 -535 -2530 -542 -2576 l-6 -32 274 2 273 3 27
140 c14 77 39 206 54 288 l28 147 227 0 227 0 41 -242 c23 -134 45 -264 48
-290 l7 -48 268 0 c190 0 269 3 269 11 0 6 -121 593 -270 1303 -148 711 -270
1296 -270 1299 0 4 -146 7 -325 7 -252 0 -327 -3 -330 -12z m415 -1168 c44
-272 82 -503 84 -512 4 -17 -9 -18 -168 -18 l-173 0 23 138 c12 75 51 310 85
522 35 211 64 380 66 375 1 -6 39 -233 83 -505z"/>
<path d="M4380 4615 l0 -195 195 0 195 0 0 -1115 0 -1115 265 0 265 0 0 1115
0 1115 195 0 195 0 0 195 0 195 -655 0 -655 0 0 -195z"/>
</g>
</svg>
