<svg viewBox="0 0 100 100" xmlns="http://www.w3.org/2000/svg"><path fill="#D7D1D0" d="M18.303 78.99l31.86 18.566L82.137 78.99V20.977l-31.972-3.295-31.86 3.295"/><path fill="#ACA1A1" d="M84.224 46.028L57.746 60.53l5.933.99 20.324 9.118M60.712 55.477L82.136 27.46v-6.482l-8.9-.88L54.67 59.762"/><path fill="#ACA1A1" d="M62.36 19l-12.196-1.317-14.172 1.427c3.186 22.523 6.372 45.267 6.592 46.364.55 2.198 12.855 2.307 12.855 2.307L62.36 19z"/><path fill="#ACA1A1" d="M44.45 54.927l5.935 4.285-25.05-38.893-7.032.658v9.45M77.522 83.054L57.746 61.08v17.14l1.538 14.063M17.533 46.028l26.48 14.503-5.934.99-20.326 9.118M24.235 83.054L44.012 61.08v17.14l-1.538 14.063"/><path fill="#17193F" d="M50.164 99.973l-34.06-19.886V19.33l34.06-3.516 34.06 3.516v60.647l-34.06 19.996zM19.18 78.33l30.984 18.127L81.147 78.33V22.075L50.164 18.89 19.18 22.076V78.33z"/><g transform="matrix(1.09868 0 0 1.09868 .723 .103)"><circle fill="#FFF" cx="44.6" cy="47.9" r="22.7"/><path fill="#17193F" d="M85.7 20.9c-.3.1-.7 1.6-.7 1.6s-.7.6-.8.6c-.1 0 0 0 0 0l1-2.8c.2-.5.3-1 .2-1.5l-.4-2s-.7.2-.7 1c0 .4.1 1.5.1 1.5l-1.1 2.3s-.2.4-.4.4c-.1 0-.2-.5-.2-.5l.6-4.1c0-.3-.1-.5-.3-.7l-1.8-1.5s-.4.4-.2 1c.2.4 1 1.1 1 1.1l-.6 2.7-1.1 1s0-3.2-.5-3.7c-.2-.2-1.1.1-1.1.1l-1.6.6s-.4.3-.3.7c.2.5 2.1-.2 2.1-.2l.1 2.4-.6 2.8s-.8.9-1.3 1.1-1.1-.9-1.1-.9l-.4-.9s.5-.7.4-1c0-.2-.5-.4-.5-.4l-.3.4c-.6.5-.8 1.3-.8 2.1v.4c0 .2.8 1.1.8 1.1l.4 1.1s1.3 1.4 1.2 1.7c-.1.3-.8 4.9-.8 4.9l-3 4.4s-1.6 1.6-1.9 1.8c-.2.2-.3 0-2.7-.9-2.4-.9-7.2-1.4-7.6-1.4-.1 0-.3-.1-.6-.2-2.9-1-4.7-1.9-7.7-1.7l-2-.3c-1.4-.7-2.9-.1-3.4-.7-.4-.5-.5-1.7-.6-2.9.3-1 .7-2.4.5-3.2-.4-2-2.4-4.7-2.4-4.7l-.2-.9c.4-.4.6-.9.6-1.4 0-.7-.5-1.3-1.1-1.6v-.5s-.6-.9-.8-1.4c-.2-.6-.2-1.2-.5-1.4-.1-.1-.2-.4-.3-.8-.2-.9-1.2-1.4-2.1-1.1 0 0-.6-2.3-2.7-2.1-2.2.2-5.7 3.2-5.7 3.2s-2 1.5-2.4 1.9c-.4.5-.8 1.9-.9 2.5-.1.6.4 1.1.4 1.1s.1 1.4.1 1.7c0 .3 1.3 1.5 1.3 1.5l1.7 3.1c-.4 0-.8.2-1.1.9-.4 1 .7 2.2.7 2.2s1 .3 2.4 1.1 1.6.3 1.6.3l1.6 1.6c-.5.8-1.6 1.8-1.9 3.4-3.1 1.2-4.6 4.1-8.1 5.1-3.8 1.1-3.7 4-6.4 3.6-2.7-.4-8.3 1.4-8.3 1.4s-1.7-1.3-3.5-3.1c-1.9-1.8-1.9-8-1.9-8L9.3 33s1.2-1 1.4-1c.2 0-.2 1.1-.2 1.1s.1.8.6.8 1.2-1.9 1.1-2.8c-.1-.9-1.4-.5-1.4-.5l.6-1 1.3-.9s-.1.9.1 1.4c.1.2.6.4.6.4l.4-.2-.1-2.4s-.3-1.2-.4-1.2c-.7 0-1.6.5-1.6.5l-.7.2-.4-1.1 1.8-2.2c.3-.1 1.4.1 1.4.1s.4.4.7 0c.1-.2 0-.4-.1-.6-.2-.3-.7-.4-1-.5l-1.1-.1c-.3 0-.7.1-1 .3L10 24.4l-1.1.4-.5-3 1.5-1.5s.5.1.7.2c.6 0 .7-.7.7-.7l-1.3-.5c-.2-.1-.5-.1-.8.1l-2 1.4-1 4.7S3.7 29.2 3 30.6c-.7 1.3-.7 3.2-.7 3.2s-.3.8-.5 2-.4 5.5-.4 5.5.5 2 1.2 3.6c.7 1.7 2.2 8 2.2 8s1.7 1.3 1.9 1.9c.2.6 1.1 1.9 1.1 1.9 2.9 1.2 13.3-1.5 13.3-1.5.9.4 5.7 0 5.7 0l3.9-.6c1.3 3.4 4.3 8.4 5 8.8 1.1.7 1.5 3.9 1.9 4.7s1 4.8.4 7.8c-.5 3-1 7.2-1.1 7.6-.1.4 8 5.2 8 5.2s18.5-10.1 18.9-10.2c.4-.1-.2-.4-1-2.7-.6-1.9-1.7-9.5-1.7-9.5l-1.2-3s-.1-2-.2-4.2.9-3.2.5-6.8c-.5-3.6.1-4.7.1-4.7s1.5-1.8 4-1.2 7.7.4 7.8.4 3.6-1.1 3.6-1.1l1.9-2.6 3.6-8.2.2-3.6.1-1.3 1.6-3c.1-.3.3-.5.4-.8l.5-1.1 1.3-1.3.4-1.1.1-1.2c.3-.1.1-.7-.1-.6z"/><path fill="#FF4E23" d="M39.8 23.3c.1 1.1-.9 2.1-2.2 2.2s-2.3-.8-2.4-1.9c-.1-1.1.9-2.1 2.2-2.2 1.2-.1 2.3.8 2.4 1.9zM45.2 21c.1 1.1-.9 2-2.2 2.1-1.3.1-2.3-.7-2.4-1.8-.1-1.1.9-2 2.2-2.1 1.2 0 2.3.8 2.4 1.8z"/><path fill="#17193F" d="M38.1 21.5L36.5 24s1.5-.8 1.4-.7c0 .1-.7 1.3-1.2 2.1.3.1.6.1.9.1h.2l1.7-3.1c-.3-.5-.8-.8-1.4-.9zM42.3 19.3l-.7 1.5s1.4-.4 1.4-.3c0 .1-1 1.3-1.5 2.2.1.1.3.2.4.2.2.1.3.1.5.1l2.2-3.2c-.1-.1-.2-.1-.3-.2-.4-.3-1-.4-1.5-.4-.2 0-.4.1-.5.1z"/></g><g fill="#FF4E23"><path d="M45.55 52.62c1.098-.33.988-.88.878-1.21-.11-.328-.33-.658-.44-1.097-.22-.33-.33-.77-.44-1.1-.438-1.318.33-2.087 1.76-2.526l1.537-.33.44 1.21-1.32.328c-.768.22-.877.66-.658 1.21.11.22.22.438.33.768.11.22.33.55.44.88.33 1.098 0 1.537-.77 1.977.99 0 1.538.22 1.868 1.318.11.33.22.66.22.99.11.33.11.548.22.768.22.66.55.99 1.318.77l1.318-.33.44 1.208-1.647.33c-1.428.33-2.637.11-3.077-1.32-.11-.328-.22-.768-.33-1.097-.11-.44-.11-.77-.33-1.1-.11-.44-.438-.878-1.537-.658l-.22-.99zM60.382 49.104c-.99.44-.88.99-.66 1.318.11.33.22.66.44 1.1l.66.988c.658 1.318-.33 2.417-1.32 2.637l-1.757.66-.55-1.1 1.43-.55c.658-.22.768-.768.438-1.317-.11-.22-.22-.44-.44-.77s-.33-.55-.55-.878c-.548-.99-.218-1.65.55-2.088-.878.11-1.537-.11-2.087-1.1l-.33-.987c-.11-.33-.22-.55-.33-.77-.33-.55-.658-.88-1.427-.66l-1.1.44-.55-1.208 1.43-.55c1.427-.55 2.196-.33 2.856.88.11.328.33.768.44 1.097.11.44.22.77.44 1.1.218.44.877.878 1.866.548l.55 1.21z"/></g><path fill="none" d="M68.23 87.88V56.36m5.79-7.48l9.31-6.29M31.7 56.36v31.52m-5.79-39.11l-9.42-6.27"/></svg>