<svg width="61" height="50" viewBox="0 0 61 50" fill="none" xmlns="http://www.w3.org/2000/svg">
<path d="M51.5819 18.9737C50.0969 15.3847 47.7053 12.2509 44.6456 9.88463C41.5858 7.51838 37.9646 6.00231 34.143 5.4875C30.3214 4.9727 26.4328 5.47714 22.8646 6.95055C19.2965 8.42396 16.1735 10.8149 13.8068 13.8851C11.4402 16.9552 9.9125 20.5974 9.37609 24.4487C8.83968 28.2999 9.31325 32.2257 10.7496 35.8348C12.186 39.4439 14.535 42.6103 17.5625 45.0184C20.59 47.4265 24.1903 48.9923 28.0046 49.5596C27.505 47.7435 26.9967 45.7363 26.5488 43.6075C27.8519 44.4601 29.2235 45.2013 30.6492 45.8232V45.8232C30.6492 45.8232 30.7526 47.7001 30.8904 49.7942C32.4308 49.821 33.9698 49.6841 35.4818 49.3858C35.4427 49.1674 35.4427 48.9438 35.4818 48.7254C35.7316 47.1005 36.4208 44.1723 36.5586 42.2867C37.552 41.3494 38.3948 40.2618 39.0567 39.0631V39.0631L39.005 39.4454C38.5313 43.147 37.5406 47.1005 36.9376 48.1954C36.7424 48.5578 36.5021 48.8936 36.2226 49.1946C39.3408 48.4568 42.2626 47.0437 44.7855 45.0533C47.3083 43.063 49.3718 40.543 50.8329 37.6681C52.2941 34.7931 53.1179 31.6321 53.2472 28.404C53.3765 25.176 52.8083 21.9582 51.5819 18.9737V18.9737ZM50.3156 22.2669C49.9366 22.6405 49.1527 22.8925 49.0235 21.7629C48.8942 20.6333 48.8598 19.8426 48.8598 19.8426C48.8598 19.8426 47.1972 16.8622 46.577 16.8275C45.9568 16.7927 41.5549 19.8426 40.3919 21.1721C39.3841 22.293 39.1859 22.2148 39.1859 24.1872C39.1859 25.673 39.3755 31.2862 39.2721 35.5787L32.2514 37.4642C30.0448 38.1031 27.8007 38.6022 25.5323 38.9588L24.6709 33.893H24.5503L22.3364 22.4494C22.3364 22.4494 19.0543 21.1981 17.8483 20.8592C17.2821 20.6094 16.6568 20.5281 16.0462 20.6251C15.4356 20.7221 14.8653 20.9933 14.4026 21.4067C13.9306 21.8236 13.5531 22.3382 13.296 22.9155C13.0388 23.4927 12.908 24.1191 12.9124 24.752C13.0945 25.1558 13.2331 25.5782 13.3258 26.0119C13.3689 26.429 12.2921 26.3856 11.603 26.3856C10.9138 26.3856 10.8105 25.1343 11.3532 23.6658C11.7766 22.5367 12.3013 21.4489 12.921 20.4161C13.387 19.4935 13.9881 18.647 14.7041 17.9049C14.7041 17.9049 14.8247 17.6095 15.7809 17.6964C16.7371 17.7833 22.0521 18.07 22.0521 18.07L22.0952 16.0976C27.8722 15.293 33.6987 14.9039 39.5305 14.9332C39.5305 15.4633 39.5305 15.9933 39.5305 16.5233C41.7394 15.5065 44.118 14.9171 46.5425 14.7855C46.6723 14.7822 46.8008 14.8114 46.9166 14.8706C47.0323 14.9297 47.1317 15.0169 47.2058 15.1244C47.4987 15.498 49.2819 17.7311 49.4886 18.0526C50.0677 18.8874 50.5942 19.758 51.065 20.6594C50.9037 21.2301 50.6505 21.7702 50.3156 22.2582V22.2669Z" fill="#FDC305"/>
<path d="M48.6363 16.9491C49.0411 17.4705 49.3943 17.931 49.4977 18.07C50.0768 18.9048 50.6033 19.7754 51.0741 20.6768C50.9102 21.2288 50.6601 21.7509 50.3333 22.2234C49.9543 22.5971 49.1704 22.8491 49.0411 21.7195C48.9119 20.5899 48.8602 19.8426 48.8602 19.8426C48.8602 19.8426 47.1977 16.8622 46.5775 16.8275C45.9572 16.7927 41.5553 19.8426 40.3924 21.1721C39.3845 22.293 39.1864 22.2148 39.1864 24.1872C39.1864 25.4906 39.3328 29.9655 39.2984 33.9451C40.8576 34.1189 43.149 34.5534 43.8381 35.5787C43.8381 35.5787 43.5883 29.3399 50.5659 32.607C50.5659 32.607 50.8071 24.1003 60.4378 26.2813C57.1639 22.404 53.1505 19.2304 48.6363 16.9491V16.9491Z" fill="#F06351"/>
<path d="M39.5654 14.9332C39.6005 10.1183 39.1968 5.3104 38.3594 0.570041C38.3594 0.570041 38.2302 -0.559551 37.61 0.361501C37.0982 1.46261 36.7499 2.63372 36.5763 3.83717C32.8938 3.59884 29.1975 3.69772 25.5328 4.1326C24.8264 1.74308 23.6204 0.656933 23.0432 0.943675C22.4661 1.23042 22.3972 3.79372 22.3972 3.79372L22.1129 16.0976C27.8956 15.2922 33.7279 14.9031 39.5654 14.9332V14.9332Z" fill="#F06351"/>
<path d="M39.0651 39.063C39.1771 38.1333 39.2374 36.8994 39.2719 35.5352L32.2516 37.4208C30.0459 38.0743 27.8019 38.5879 25.5327 38.9588L26.4889 43.3034C26.4889 43.3989 26.4889 43.4945 26.5492 43.5901C27.8522 44.4428 29.2238 45.1839 30.6494 45.8058C32.7328 44.8012 34.7171 43.5996 36.5757 42.2172V42.2693C37.5647 41.3367 38.4044 40.2551 39.0651 39.063V39.063Z" fill="#E55645"/>
<path d="M27.5657 12.2135C27.5227 12.1266 28.4271 12.8044 28.7803 13.0129C29.1334 13.2215 29.3057 13.3779 29.3057 13.5256C29.3057 13.6733 29.0818 13.821 28.7717 13.821C28.4616 13.821 27.9792 13.7167 27.9103 13.5951C27.8414 13.4734 28.4271 13.5951 28.72 13.5951H28.9698C28.4395 13.2037 27.9667 12.7386 27.5657 12.2135Z" fill="black"/>
<path d="M34.0264 12.3091C34.0264 12.3091 33.165 13.4213 33.0875 13.4735C33.0099 13.5256 32.941 13.7689 33.2511 13.7254C33.6071 13.6718 33.9585 13.5905 34.302 13.4821C34.3968 13.43 34.3623 13.3084 34.1986 13.3257C34.035 13.3431 33.6129 13.3692 33.3373 13.4213L34.0694 12.3178C34.0694 12.3178 34.0953 12.2135 34.0264 12.3091Z" fill="black"/>
<path d="M31.3215 17.6182C31.7208 17.4407 32.0508 17.1353 32.2604 16.7493C32.5016 16.1758 32.2604 15.9586 31.8814 15.8804C31.36 15.7844 30.8218 15.8899 30.374 16.1758C30.038 16.4973 30.0811 16.8101 30.374 17.0447C30.6649 17.2749 30.9832 17.4675 31.3215 17.6182V17.6182Z" fill="black"/>
<path d="M31.0113 18.713C30.9124 18.9101 30.778 19.0869 30.615 19.2344C30.3697 19.4335 30.0682 19.5491 29.7537 19.5646C29.2794 19.6115 28.8052 19.4749 28.4271 19.1822C28.2535 19.0798 28.099 18.9475 27.9706 18.7912C27.8844 18.6966 27.7785 18.6224 27.6605 18.574C27.6605 18.574 28.3065 22.1453 29.8743 22.7187C31.442 23.2922 31.7348 22.0584 31.7779 21.7282C31.8304 20.7393 31.5841 19.7576 31.0716 18.9129C31.0716 18.6522 31.0544 18.826 31.0113 18.713Z" fill="#F06351"/>
<path d="M29.5469 19.7036C29.1438 19.6451 28.7566 19.5049 28.4087 19.2913C28.0608 19.0778 27.7594 18.7953 27.5226 18.461C27.5015 18.4371 27.4897 18.4062 27.4897 18.3741C27.4897 18.3421 27.5015 18.3111 27.5226 18.2872C27.5339 18.2757 27.5473 18.2665 27.5621 18.2602C27.5769 18.254 27.5927 18.2507 27.6088 18.2507C27.6248 18.2507 27.6407 18.254 27.6555 18.2602C27.6703 18.2665 27.6837 18.2757 27.6949 18.2872C27.9081 18.5889 28.1785 18.8449 28.4905 19.0403C28.8025 19.2357 29.1499 19.3666 29.5124 19.4255C29.7993 19.4038 30.0769 19.3137 30.3225 19.1626C30.5681 19.0116 30.7746 18.8039 30.9251 18.5566L31.0457 18.3915L31.1319 18.5827C31.1319 18.5827 31.4592 19.2431 31.9932 19.2778C32.5273 19.3126 32.9063 18.9129 33.3973 18.1569C33.4156 18.1293 33.444 18.1101 33.4763 18.1035C33.5086 18.097 33.5422 18.1037 33.5696 18.1222C33.597 18.1406 33.616 18.1693 33.6225 18.2018C33.6289 18.2344 33.6223 18.2683 33.604 18.2959C33.0298 19.1475 32.4871 19.5559 31.976 19.5211C31.7785 19.4947 31.5893 19.424 31.4224 19.3143C31.2554 19.2045 31.115 19.0585 31.0113 18.8868C30.8427 19.1242 30.6238 19.3207 30.3705 19.462C30.1172 19.6033 29.8358 19.6858 29.5469 19.7036Z" fill="black"/>
<path d="M31.2353 31.3992C33.0192 31.3992 34.4655 29.9403 34.4655 28.1408C34.4655 26.3412 33.0192 24.8823 31.2353 24.8823C29.4513 24.8823 28.0051 26.3412 28.0051 28.1408C28.0051 29.9403 29.4513 31.3992 31.2353 31.3992Z" fill="#FDC305"/>
<path d="M35.5163 25.4906L32.8202 26.6288L33.8108 21.7368L27.3504 30.2175L30.0465 29.0792L29.0559 33.9799L35.5163 25.4906ZM29.1507 28.8185L32.734 24.1177L32.0363 27.5933L33.7591 26.8808L30.1499 31.5904L30.8476 28.1147L29.1507 28.8185Z" fill="#111111"/>
<path d="M27.9447 27.5412C28.4775 27.5412 28.9095 27.1055 28.9095 26.568C28.9095 26.0306 28.4775 25.5948 27.9447 25.5948C27.4119 25.5948 26.9799 26.0306 26.9799 26.568C26.9799 27.1055 27.4119 27.5412 27.9447 27.5412Z" fill="#111111"/>
<path d="M33.5612 31.069C33.9371 31.069 34.2417 30.7617 34.2417 30.3826C34.2417 30.0035 33.9371 29.6961 33.5612 29.6961C33.1854 29.6961 32.8807 30.0035 32.8807 30.3826C32.8807 30.7617 33.1854 31.069 33.5612 31.069Z" fill="#111111"/>
<path d="M34.3882 29.1835C34.5547 29.1835 34.6897 29.0473 34.6897 28.8793C34.6897 28.7114 34.5547 28.5752 34.3882 28.5752C34.2217 28.5752 34.0867 28.7114 34.0867 28.8793C34.0867 29.0473 34.2217 29.1835 34.3882 29.1835Z" fill="#111111"/>
<path d="M39.5224 16.506C37.9674 17.9199 36.5029 19.432 35.1377 21.033C33.7778 22.6225 32.2433 24.0509 30.5635 25.2907C30.374 24.8302 29.1594 23.97 29.1594 23.97C29.1594 23.97 26.4545 22.1018 24.6799 20.6333C23.7207 19.8274 22.8169 18.9565 21.9751 18.0266L20.2522 17.931C22.7392 21.5954 26.3826 24.3027 30.5893 25.6122C31.3302 25.4906 33.4148 23.9873 34.974 22.7622C36.8187 21.1798 38.5461 19.4634 40.1426 17.6269C40.5717 17.1124 40.9044 16.5236 41.1246 15.889C40.1426 16.2192 39.5224 16.506 39.5224 16.506Z" fill="#F06351"/>
<path d="M22.3368 22.4494C22.3368 22.4494 19.0548 21.1981 17.8488 20.8593C17.2825 20.6094 16.6572 20.5281 16.0467 20.6251C15.4361 20.7221 14.8658 20.9933 14.4031 21.4067C13.931 21.8236 13.5536 22.3382 13.2964 22.9155C13.0393 23.4927 12.9084 24.1191 12.9128 24.752C13.0949 25.1559 13.2335 25.5782 13.3263 26.0119C13.3694 26.429 12.2926 26.3856 11.6034 26.3856C10.9143 26.3856 10.8109 25.1343 11.3536 23.6659C11.777 22.5367 12.3018 21.4489 12.9214 20.4161C8.22664 22.8838 0 28.5839 0 28.5839C2.35316 28.4408 4.71429 28.5106 7.0551 28.7925C11.5776 29.253 11.3622 32.8503 11.3622 32.8503C12.9529 32.408 14.574 32.0856 16.2121 31.8858C18.0383 31.7642 18.1675 33.7279 18.1675 33.7279L18.6241 37.0819C19.3173 36.3254 20.0819 35.6386 20.9069 35.0313C21.9703 34.1726 23.3243 33.7673 24.6799 33.9017V33.9017L22.3368 22.4494Z" fill="#F06351"/>
</svg>
